PathFileType	4	(X/Y/Z) abd_0kg_1.trc																										
DataRate	CameraRate	NumFrames	NumMarkers	Units	OrigDataRate	OrigDataStartFrame	OrigNumFrames																					
100	100	58	9	mm	100	955	1091																					
Frame#	Time	gu			centelbow			EpL			centpxt8			centijc7			ij			ts			aa			ai		
		X1	Y1	Z1	X2	Y2	Z2	X3	Y3	Z3	X4	Y4	Z4	X5	Y5	Z5	X6	Y6	Z6	X7	Y7	Z7	X8	Y8	Z8	X9	Y9	Z9  
954	9.54	-104.842	0.781	163.209	-148.518	-241.604	181.265	-146.573	-235.532	212.868	-46.816	-153.158	-8.669	-46.816	31.938	-8.669	0	0	0	-128.108	31.903	34.579	-134.019	36.439	153.614	-141.225	-80.503	43.434
955	9.55	-104.857	0.813	162.858	-148.569	-241.563	180.941	-146.574	-235.497	212.543	-46.816	-153.158	-8.669	-46.816	31.938	-8.669	0	0	0	-128.071	31.93	34.692	-133.964	36.466	153.728	-141.268	-80.467	43.545
956	9.56	-104.849	0.81	162.662	-148.603	-241.558	180.764	-146.575	-235.496	212.364	-46.816	-153.158	-8.669	-46.816	31.938	-8.669	0	0	0	-128.15	31.99	34.771	-134.018	36.525	153.808	-141.41	-80.4	43.621
957	9.57	-104.838	0.718	162.621	-148.649	-241.64	180.724	-146.603	-235.58	212.323	-46.816	-153.158	-8.669	-46.816	31.938	-8.669	0	0	0	-128.273	32.002	34.828	-134.119	36.529	153.866	-141.585	-80.382	43.67
958	9.58	-104.848	0.627	162.666	-148.714	-241.722	180.759	-146.659	-235.666	212.358	-46.816	-153.158	-8.669	-46.816	31.938	-8.669	0	0	0	-128.312	31.969	34.884	-134.144	36.485	153.923	-141.667	-80.411	43.715
959	9.59	-104.895	0.594	162.762	-148.806	-241.748	180.841	-146.748	-235.694	212.44	-46.816	-153.158	-8.669	-46.816	31.938	-8.669	0	0	0	-128.302	31.966	34.95	-134.121	36.474	153.99	-141.691	-80.411	43.773
960	9.6	-105.033	0.563	162.86	-148.98	-241.771	180.94	-146.918	-235.718	212.54	-46.816	-153.158	-8.669	-46.816	31.938	-8.669	0	0	0	-128.383	32.013	35.007	-134.187	36.519	154.048	-141.803	-80.36	43.829
961	9.61	-105.24	0.449	162.913	-149.22	-241.877	181.031	-147.151	-235.82	212.629	-46.816	-153.158	-8.669	-46.816	31.938	-8.669	0	0	0	-128.567	32.042	35.017	-134.353	36.558	154.059	-142.022	-80.326	43.848
962	9.62	-105.405	0.264	162.932	-149.413	-242.052	181.115	-147.338	-235.989	212.712	-46.816	-153.158	-8.669	-46.816	31.938	-8.669	0	0	0	-128.72	32.037	34.96	-134.481	36.57	154.002	-142.215	-80.325	43.808
963	9.63	-105.462	0.135	162.932	-149.491	-242.172	181.18	-147.411	-236.101	212.775	-46.816	-153.158	-8.669	-46.816	31.938	-8.669	0	0	0	-128.772	32.042	34.876	-134.508	36.595	153.919	-142.308	-80.313	43.742
964	9.64	-105.446	0.155	162.887	-149.482	-242.146	181.188	-147.398	-236.069	212.782	-46.816	-153.158	-8.669	-46.816	31.938	-8.669	0	0	0	-128.78	32.049	34.823	-134.498	36.621	153.866	-142.357	-80.301	43.708
965	9.65	-105.423	0.276	162.801	-149.445	-242.024	181.153	-147.358	-235.941	212.745	-46.816	-153.158	-8.669	-46.816	31.938	-8.669	0	0	0	-128.798	32.004	34.78	-134.508	36.603	153.822	-142.417	-80.339	43.689
966	9.66	-105.421	0.377	162.707	-149.409	-241.927	181.106	-147.32	-235.837	212.696	-46.816	-153.158	-8.669	-46.816	31.938	-8.669	0	0	0	-128.803	31.921	34.689	-134.508	36.554	153.731	-142.466	-80.413	43.629
967	9.67	-105.421	0.415	162.623	-149.365	-241.894	181.049	-147.277	-235.801	212.639	-46.816	-153.158	-8.669	-46.816	31.938	-8.669	0	0	0	-128.743	31.903	34.578	-134.436	36.576	153.618	-142.443	-80.424	43.554
968	9.68	-105.399	0.43	162.577	-149.303	-241.887	181.002	-147.218	-235.793	212.592	-46.816	-153.158	-8.669	-46.816	31.938	-8.669	0	0	0	-128.627	32.011	34.514	-134.305	36.72	153.554	-142.36	-80.309	43.525
969	9.69	-105.373	0.426	162.583	-149.249	-241.897	180.985	-147.168	-235.806	212.576	-46.816	-153.158	-8.669	-46.816	31.938	-8.669	0	0	0	-128.558	32.163	34.487	-134.224	36.89	153.526	-142.328	-80.152	43.514
970	9.7	-105.381	0.393	162.608	-149.238	-241.936	180.979	-147.164	-235.847	212.571	-46.816	-153.158	-8.669	-46.816	31.938	-8.669	0	0	0	-128.608	32.247	34.442	-134.273	36.972	153.481	-142.431	-80.062	43.464
971	9.71	-105.441	0.366	162.621	-149.284	-241.967	180.973	-147.217	-235.879	212.565	-46.816	-153.158	-8.669	-46.816	31.938	-8.669	0	0	0	-128.735	32.233	34.386	-134.404	36.948	153.426	-142.619	-80.068	43.395
972	9.72	-105.518	0.374	162.634	-149.367	-241.958	180.99	-147.307	-235.868	212.582	-46.816	-153.158	-8.669	-46.816	31.938	-8.669	0	0	0	-128.832	32.128	34.368	-134.506	36.832	153.407	-142.778	-80.168	43.362
973	9.73	-105.545	0.381	162.662	-149.425	-241.943	181.045	-147.371	-235.849	212.637	-46.816	-153.158	-8.669	-46.816	31.938	-8.669	0	0	0	-128.853	31.971	34.397	-134.532	36.668	153.437	-142.853	-80.318	43.382
974	9.74	-105.481	0.362	162.678	-149.394	-241.953	181.1	-147.346	-235.853	212.691	-46.816	-153.158	-8.669	-46.816	31.938	-8.669	0	0	0	-128.83	31.882	34.431	-134.52	36.578	153.471	-142.867	-80.403	43.412
975	9.75	-105.354	0.363	162.637	-149.265	-241.95	181.104	-147.223	-235.842	212.695	-46.816	-153.158	-8.669	-46.816	31.938	-8.669	0	0	0	-128.789	31.942	34.409	-134.497	36.637	153.448	-142.84	-80.342	43.387
976	9.76	-105.226	0.436	162.589	-149.104	-241.877	181.118	-147.071	-235.76	212.707	-46.816	-153.158	-8.669	-46.816	31.938	-8.669	0	0	0	-128.735	32.08	34.354	-134.464	36.767	153.392	-142.79	-80.204	43.321
977	9.77	-105.135	0.568	162.629	-148.997	-241.742	181.241	-146.973	-235.612	212.828	-46.816	-153.158	-8.669	-46.816	31.938	-8.669	0	0	0	-128.695	32.18	34.359	-134.442	36.848	153.396	-142.763	-80.104	43.305
978	9.78	-105.078	0.654	162.702	-148.977	-241.641	181.411	-146.961	-235.498	212.996	-46.816	-153.158	-8.669	-46.816	31.938	-8.669	0	0	0	-128.673	32.185	34.415	-134.432	36.831	153.453	-142.769	-80.097	43.337
979	9.79	-105.048	0.6	162.638	-149.031	-241.672	181.456	-147.017	-235.514	213.039	-46.816	-153.158	-8.669	-46.816	31.938	-8.669	0	0	0	-128.634	32.107	34.405	-134.397	36.727	153.444	-142.76	-80.173	43.301
980	9.8	-105.042	0.467	162.441	-149.115	-241.78	181.374	-147.097	-235.608	212.954	-46.816	-153.158	-8.669	-46.816	31.938	-8.669	0	0	0	-128.576	32.024	34.296	-134.342	36.615	153.336	-142.717	-80.257	43.164
981	9.81	-105.034	0.405	162.293	-149.169	-241.822	181.333	-147.145	-235.638	212.91	-46.816	-153.158	-8.669	-46.816	31.938	-8.669	0	0	0	-128.539	32.034	34.196	-134.314	36.597	153.237	-142.673	-80.25	43.036
982	9.82	-105.004	0.459	162.234	-149.168	-241.755	181.372	-147.139	-235.558	212.946	-46.816	-153.158	-8.669	-46.816	31.938	-8.669	0	0	0	-128.516	32.126	34.17	-134.303	36.666	153.211	-142.641	-80.161	42.988
983	9.83	-104.99	0.557	162.138	-149.172	-241.645	181.38	-147.135	-235.437	212.951	-46.816	-153.158	-8.669	-46.816	31.938	-8.669	0	0	0	-128.496	32.202	34.17	-134.283	36.726	153.211	-142.622	-80.086	42.972
984	9.84	-105.042	0.6	162.044	-149.256	-241.588	181.396	-147.206	-235.368	212.964	-46.816	-153.158	-8.669	-46.816	31.938	-8.669	0	0	0	-128.523	32.205	34.182	-134.297	36.72	153.224	-142.651	-80.084	42.977
985	9.85	-105.105	0.535	162.095	-149.359	-241.637	181.548	-147.293	-235.407	213.113	-46.816	-153.158	-8.669	-46.816	31.938	-8.669	0	0	0	-128.599	32.148	34.241	-134.36	36.66	153.284	-142.726	-80.141	43.035
986	9.86	-105.077	0.44	162.213	-149.335	-241.725	181.746	-147.254	-235.488	213.309	-46.816	-153.158	-8.669	-46.816	31.938	-8.669	0	0	0	-128.652	32.09	34.32	-134.401	36.6	153.364	-142.775	-80.199	43.113
987	9.87	-105.004	0.425	162.249	-149.208	-241.746	181.835	-147.111	-235.504	213.396	-46.816	-153.158	-8.669	-46.816	31.938	-8.669	0	0	0	-128.677	32.092	34.39	-134.413	36.588	153.435	-142.796	-80.198	43.173
988	9.88	-105.036	0.42	162.256	-149.162	-241.762	181.875	-147.05	-235.518	213.434	-46.816	-153.158	-8.669	-46.816	31.938	-8.669	0	0	0	-128.762	32.107	34.475	-134.485	36.579	153.521	-142.871	-80.186	43.236
989	9.89	-105.161	0.272	162.308	-149.223	-241.92	181.953	-147.092	-235.676	213.511	-46.816	-153.158	-8.669	-46.816	31.938	-8.669	0	0	0	-128.894	32.008	34.538	-134.598	36.457	153.586	-142.988	-80.289	43.281
990	9.9	-105.195	0.015	162.327	-149.2	-242.185	181.999	-147.046	-235.942	213.555	-46.816	-153.158	-8.669	-46.816	31.938	-8.669	0	0	0	-128.936	31.78	34.493	-134.609	36.215	153.543	-143.014	-80.519	43.228
991	9.91	-105.081	-0.159	162.252	-149.013	-242.37	181.953	-146.835	-236.127	213.508	-46.816	-153.158	-8.669	-46.816	31.938	-8.669	0	0	0	-128.857	31.588	34.321	-134.501	36.023	153.373	-142.914	-80.714	43.059
992	9.92	-104.958	-0.15	162.178	-148.793	-242.376	181.912	-146.596	-236.132	213.465	-46.816	-153.158	-8.669	-46.816	31.938	-8.669	0	0	0	-128.778	31.603	34.108	-134.415	36.055	153.159	-142.798	-80.702	42.865
993	9.93	-104.917	-0.04	162.224	-148.637	-242.284	181.98	-146.43	-236.039	213.533	-46.816	-153.158	-8.669	-46.816	31.938	-8.669	0	0	0	-128.76	31.801	33.984	-134.42	36.286	153.033	-142.736	-80.507	42.773
994	9.94	-104.892	0.024	162.352	-148.491	-242.242	182.119	-146.281	-235.995	213.671	-46.816	-153.158	-8.669	-46.816	31.938	-8.669	0	0	0	-128.733	31.992	33.995	-134.429	36.514	153.04	-142.677	-80.318	42.815
995	9.95	-104.817	-0.007	162.429	-148.302	-242.292	182.212	-146.093	-236.042	213.764	-46.816	-153.158	-8.669	-46.816	31.938	-8.669	0	0	0	-128.629	32.06	34.065	-134.358	36.604	153.109	-142.565	-80.249	42.904
996	9.96	-104.746	-0.031	162.403	-148.146	-242.329	182.209	-145.94	-236.075	213.76	-46.816	-153.158	-8.669	-46.816	31.938	-8.669	0	0	0	-128.474	32.061	34.104	-134.227	36.608	153.147	-142.416	-80.247	42.942
997	9.97	-104.769	0.043	162.306	-148.127	-242.261	182.139	-145.926	-236.002	213.689	-46.816	-153.158	-8.669	-46.816	31.938	-8.669	0	0	0	-128.345	32.082	34.067	-134.111	36.621	153.109	-142.301	-80.226	42.895
998	9.98	-104.885	0.176	162.177	-148.232	-242.127	182.048	-146.037	-235.862	213.597	-46.816	-153.158	-8.669	-46.816	31.938	-8.669	0	0	0	-128.329	32.128	33.962	-134.1	36.667	153.004	-142.307	-80.177	42.789
999	9.99	-105.01	0.285	162.073	-148.354	-242.014	181.992	-146.164	-235.742	213.54	-46.816	-153.158	-8.669	-46.816	31.938	-8.669	0	0	0	-128.449	32.163	33.876	-134.218	36.721	152.917	-142.445	-80.138	42.72
1000	10	-105.061	0.328	162.061	-148.406	-241.968	182.014	-146.22	-235.691	213.562	-46.816	-153.158	-8.669	-46.816	31.938	-8.669	0	0	0	-128.59	32.158	33.881	-134.354	36.746	152.921	-142.599	-80.139	42.752
1001	10.01	-105.033	0.318	162.107	-148.39	-241.976	182.064	-146.206	-235.698	213.612	-46.816	-153.158	-8.669	-46.816	31.938	-8.669	0	0	0	-128.619	32.1	33.926	-134.375	36.713	152.966	-142.645	-80.193	42.821
1002	10.02	-105.016	0.341	162.11	-148.377	-241.954	182.043	-146.197	-235.678	213.592	-46.816	-153.158	-8.669	-46.816	31.938	-8.669	0	0	0	-128.543	32.023	33.932	-134.294	36.652	152.971	-142.587	-80.267	42.842
1003	10.03	-105.066	0.451	162.04	-148.414	-241.85	181.929	-146.242	-235.579	213.479	-46.816	-153.158	-8.669	-46.816	31.938	-8.669	0	0	0	-128.456	31.997	33.878	-134.21	36.638	152.916	-142.514	-80.291	42.799
1004	10.04	-105.126	0.588	161.944	-148.473	-241.718	181.776	-146.311	-235.453	213.328	-46.816	-153.158	-8.669	-46.816	31.938	-8.669	0	0	0	-128.402	32.066	33.767	-134.161	36.721	152.805	-142.47	-80.219	42.699
1005	10.05	-105.142	0.676	161.883	-148.528	-241.627	181.657	-146.381	-235.367	213.21	-46.816	-153.158	-8.669	-46.816	31.938	-8.669	0	0	0	-128.364	32.2	33.64	-134.128	36.871	152.677	-142.445	-80.082	42.587
1006	10.06	-105.124	0.713	161.93	-148.581	-241.583	181.645	-146.454	-235.327	213.201	-46.816	-153.158	-8.669	-46.816	31.938	-8.669	0	0	0	-128.337	32.295	33.609	-134.113	36.987	152.644	-142.445	-79.982	42.572
1007	10.07	-105.092	0.708	162.108	-148.626	-241.579	181.754	-146.522	-235.328	213.312	-46.816	-153.158	-8.669	-46.816	31.938	-8.669	0	0	0	-128.332	32.272	33.706	-134.136	36.984	152.739	-142.483	-79.999	42.683
1008	10.08	-105.059	0.647	162.319	-148.674	-241.633	181.879	-146.593	-235.389	213.441	-46.816	-153.158	-8.669	-46.816	31.938	-8.669	0	0	0	-128.343	32.137	33.844	-134.185	36.866	152.874	-142.544	-80.127	42.83
1009	10.09	-105.038	0.545	162.449	-148.732	-241.727	181.934	-146.665	-235.49	213.498	-46.816	-153.158	-8.669	-46.816	31.938	-8.669	0	0	0	-128.357	31.959	33.973	-134.24	36.705	153.001	-142.603	-80.298	42.967
1010	10.1	-105.052	0.484	162.503	-148.785	-241.784	181.945	-146.723	-235.552	213.51	-46.816	-153.158	-8.669	-46.816	31.938	-8.669	0	0	0	-128.398	31.847	34.084	-134.316	36.609	153.109	-142.678	-80.406	43.088
1011	10.11	-105.166	0.524	162.527	-148.89	-241.748	181.946	-146.83	-235.519	213.511	-46.816	-153.158	-8.669	-46.816	31.938	-8.669	0	0	0	-128.514	31.849	34.122	-134.456	36.632	153.145	-142.816	-80.4	43.142
